<mxfile host="app.diagrams.net" modified="2024-01-21T03:24:58.805Z" agent="Mozilla/5.0 (Windows NT 10.0; Win64; x64) AppleWebKit/537.36 (KHTML, like Gecko) Chrome/120.0.0.0 Safari/537.36" version="22.1.21" etag="cb39LMWJ86JWjF3fUO3a" type="github">
  <diagram name="Page-1" id="QafWGBfwWdOXgDi0-ck9">
    <mxGraphModel>
      <root>
        <mxCell id="0" />
        <mxCell id="1" parent="0" />
      </root>
    </mxGraphModel>
  </diagram>
</mxfile>
